<?xml version="1.0" standalone="no"?>
<!DOCTYPE svg PUBLIC "-//W3C//DTD SVG 20010904//EN"
 "http://www.w3.org/TR/2001/REC-SVG-20010904/DTD/svg10.dtd">
<svg version="1.0" xmlns="http://www.w3.org/2000/svg"
 width="512.000000pt" height="512.000000pt" viewBox="0 0 512.000000 512.000000"
 preserveAspectRatio="xMidYMid meet">

<g transform="translate(0.000000,512.000000) scale(0.100000,-0.100000)"
fill="#ffffff" stroke="none">
<path d="M1587 3826 c-97 -36 -172 -128 -184 -225 -5 -43 7 -85 97 -357 57
-170 111 -325 120 -344 23 -45 63 -82 120 -110 42 -22 66 -24 385 -36 501 -19
478 -17 523 -47 44 -28 82 -96 82 -143 -1 -64 -54 -141 -114 -164 -16 -6 -199
-17 -420 -25 -413 -16 -437 -19 -505 -69 -62 -46 -80 -85 -188 -416 -118 -363
-120 -380 -66 -469 61 -99 178 -153 287 -133 65 12 57 8 561 302 312 182 1055
611 1205 696 140 79 195 158 195 279 -1 51 -7 82 -23 115 -45 93 5 62 -1247
783 -697 401 -636 370 -719 374 -45 2 -85 -2 -109 -11z"/>
</g>
</svg>
