<svg width="144" height="33" viewBox="0 0 144 33" fill="none" xmlns="http://www.w3.org/2000/svg">
<path d="M61.4977 10.2733L55.8738 10.311C55.6474 7.63118 53.9489 6.31014 50.7784 6.31014C49.4196 6.31014 48.3627 6.57434 47.6079 7.10276C46.853 7.63118 46.4378 8.38606 46.4378 9.36741C46.4378 9.66936 46.5133 9.97132 46.5888 10.2355C46.702 10.462 46.8907 10.6885 47.1549 10.9149C47.4569 11.1414 47.7211 11.2924 47.9853 11.4433C48.2872 11.5943 48.7024 11.7453 49.2309 11.8963C49.7593 12.0472 50.2499 12.1982 50.7029 12.3492C51.1558 12.4624 51.7597 12.6134 52.5523 12.8399C53.3827 13.0286 54.0621 13.2173 54.666 13.406C57.3081 14.1609 59.3085 15.1045 60.5918 16.2368C61.8751 17.3692 62.5168 18.9922 62.5168 21.1058C62.5168 22.6156 62.2148 23.9744 61.5732 25.1067C60.9693 26.239 60.1012 27.1449 59.0443 27.8243C57.9875 28.5037 56.8174 28.9943 55.5341 29.2963C54.2508 29.5983 52.892 29.787 51.4578 29.787C47.8343 29.787 44.9658 28.9189 42.9276 27.2581C40.8894 25.5974 39.8326 23.2195 39.7948 20.2H45.6452C45.7584 23.5592 47.7966 25.2577 51.722 25.2577C53.2695 25.2577 54.4773 24.918 55.3831 24.2763C56.289 23.6347 56.7042 22.7666 56.7042 21.672C56.7042 20.7284 56.3267 20.049 55.4964 19.6338C54.666 19.1809 52.9675 18.6147 50.3254 17.8598C50.1745 17.8221 50.0612 17.7843 49.9857 17.7843C49.9102 17.7466 49.8348 17.7089 49.6838 17.6711C49.5705 17.6334 49.4573 17.5956 49.3441 17.5956C48.4382 17.3314 47.8343 17.1427 47.4569 17.0295C47.1172 16.9162 46.551 16.7275 45.7961 16.4633C45.0413 16.1614 44.4751 15.9349 44.1354 15.7084C43.758 15.482 43.3428 15.1423 42.8144 14.7648C42.2859 14.3496 41.9462 13.9344 41.7198 13.4815C41.4933 13.0286 41.2668 12.5002 41.0781 11.8585C40.8894 11.2169 40.8139 10.5375 40.8139 9.7826C40.8139 7.32923 41.7575 5.36653 43.6447 3.89451C45.5319 2.46024 48.023 1.70535 51.1558 1.70535C54.1753 1.70535 56.6287 2.42249 58.5536 3.85677C60.4409 5.29105 61.4222 7.40472 61.4977 10.2733ZM84.122 21.6342C83.7823 24.1631 82.801 26.1258 81.1403 27.5601C79.4795 28.9566 77.3658 29.6737 74.7992 29.6737C71.7797 29.6737 69.4018 28.7301 67.5901 26.9184C65.7784 25.069 64.8725 22.6156 64.8725 19.5583C64.8725 16.4256 65.7784 13.8967 67.5901 11.9718C69.4018 10.0845 71.8552 9.1032 74.8747 9.1032C77.4413 9.1032 79.555 9.7826 81.2157 11.1036C82.8387 12.4247 83.7823 14.1987 84.0088 16.4633H78.7624C78.3472 14.2364 77.0639 13.1041 74.9125 13.1041C73.4405 13.1041 72.3081 13.6702 71.4778 14.8026C70.6474 15.9349 70.2699 17.4824 70.2699 19.4828C70.2699 21.4078 70.6474 22.9175 71.44 23.9744C72.2326 25.0312 73.365 25.5596 74.7992 25.5596C77.1394 25.5596 78.4982 24.2763 78.9511 21.6342H84.122ZM96.8123 9.1032C99.7941 9.1032 102.21 10.0468 104.021 11.934C105.833 13.8212 106.777 16.3123 106.777 19.4073C106.777 22.5401 105.833 25.0312 104.021 26.9184C102.21 28.8056 99.7564 29.7492 96.7368 29.7492C93.6796 29.7492 91.2262 28.8056 89.4145 26.9184C87.565 25.0312 86.6592 22.5401 86.6592 19.4073C86.6592 16.3123 87.565 13.8212 89.4522 11.934C91.3017 10.0468 93.755 9.1032 96.8123 9.1032ZM96.6613 13.1796C95.2271 13.1796 94.0947 13.7457 93.2644 14.8781C92.434 15.9726 92.0188 17.4824 92.0188 19.4451C92.0188 21.4078 92.434 22.9553 93.2644 24.0876C94.0947 25.1822 95.2271 25.7484 96.7368 25.7484C98.2088 25.7484 99.3412 25.1822 100.172 24.0499C101.002 22.9175 101.417 21.37 101.417 19.3696C101.417 17.4447 100.964 15.9349 100.134 14.8403C99.3034 13.7457 98.1334 13.1796 96.6613 13.1796ZM128.568 9.66936V29.1453H123.472V26.39C121.962 28.6169 119.849 29.7115 117.131 29.7115C114.98 29.7115 113.319 29.1453 112.111 27.9753C110.903 26.8052 110.337 25.069 110.337 22.7666V9.66936H115.735V20.8039C115.735 21.5588 115.735 22.1249 115.81 22.5778C115.885 23.0308 115.999 23.446 116.225 23.8989C116.414 24.3518 116.754 24.6915 117.207 24.918C117.659 25.1444 118.263 25.2199 119.018 25.2199C121.811 25.2199 123.246 23.4082 123.246 19.7093V9.66936H128.568ZM143.392 9.66936V13.3305H139.429V22.5024C139.429 23.0685 139.429 23.4837 139.467 23.7479C139.467 24.0121 139.58 24.2763 139.731 24.5783C139.882 24.8425 140.109 25.0312 140.411 25.1067C140.713 25.1822 141.165 25.2199 141.769 25.2199C142.411 25.2199 142.939 25.2199 143.392 25.1444V29.2208C142.071 29.334 140.977 29.3718 140.146 29.3718C137.806 29.3718 136.183 28.9943 135.353 28.164C134.523 27.3336 134.107 25.7484 134.107 23.4082V13.2928H130.861V9.66936H134.107V3.78128H139.429V9.66936H143.392Z" fill="black"/>
<circle cx="16.0412" cy="16.0412" r="16.0412" fill="#397FE8"/>
</svg>
